# xmcd CD database file
#
# Track frame offsets:
#	150
#	13011
#	26092
#	38534
#	53140
#	63702
#	78308
#	99259
#	110632
#	131879
#	142088
#	152647
#	167873
#	178434
#	192879
#
# Disc length: 2778 seconds
#
# Revision: 0
# Processed by: cddbd v1.5.2PL0 Copyright (c) Steve Scherf et al.
# Submitted via: CDex 1.51
#
DISCID=d30ad80f
DTITLE=Berusky - Berusky
DYEAR=2006
DGENRE=Country
TTITLE0=Ber vse
TTITLE1=Vsude je tma
TTITLE2=Zemska kura
TTITLE3=Ceskta ke mne
TTITLE4=Houpavy sen
TTITLE5=Tomas
TTITLE6=Usmev
TTITLE7=Try to say me
TTITLE8=Hromosvod
TTITLE9=Pubertacka
TTITLE10=Peace of you
TTITLE11=John a Toi Toi
TTITLE12=Otava
TTITLE13=Hluboka reka (bonus)
TTITLE14=Patnacta svicka (bonus)
EXTD=YEAR: 2006
EXTT0=
EXTT1=
EXTT2=
EXTT3=
EXTT4=
EXTT5=
EXTT6=
EXTT7=
EXTT8=
EXTT9=
EXTT10=
EXTT11=
EXTT12=
EXTT13=
EXTT14=
PLAYORDER=
